<svg xmlns="http://www.w3.org/2000/svg" viewBox="0 0 115 758.94"><defs><style>.cls-1{fill:none;}.cls-2{fill:#161616;}.cls-3{fill:#262626;}</style></defs><title>Asset 2</title><g id="Layer_2" data-name="Layer 2"><g id="Layer_1-2" data-name="Layer 1"><g id="Butter_Churn" data-name="Butter Churn"><line class="cls-1" x1="96.75" y1="758.94" x2="41.75" y2="758.94"/><rect class="cls-2" x="54.94" y="467.67" width="5.52" height="120.63" rx="2.76" ry="2.76"/><path class="cls-2" d="M87.81,709.2H27.87a10,10,0,0,1-10-10.84L30,550a10,10,0,0,1,10-9.21H75.68a10,10,0,0,1,10,9.21L97.81,698.36A10,10,0,0,1,87.81,709.2Z"/><path class="cls-3" d="M59,659.16a116.33,116.33,0,0,0,35.2-5.24l-.41-5.08c-33.66,11.11-67.19,1.44-71.83,0l-.42,5.07A135.51,135.51,0,0,0,59,659.16Z"/><path class="cls-3" d="M56.86,601.74a107.91,107.91,0,0,0,32.63-5.14l-.42-5.09c-32.76,10.75-58.29,1.71-62.46.07l-.42,5.16A91.08,91.08,0,0,0,56.86,601.74Z"/></g><g id="Turnip"><g id="Turnip_Green" data-name="Turnip Green"><path id="Turnip_Leaf" data-name="Turnip Leaf" class="cls-3" d="M83.05,180.91a3,3,0,0,1,1.87.57c1.83,1.3,5.85,5.14,6,13.75a2.4,2.4,0,0,0,.74,1.71,8.89,8.89,0,0,1,2.47,7.47,9.07,9.07,0,0,1-3.1,6.5,1.74,1.74,0,0,0-.32,2.33c1.13,1.61,2.55,4.27,1.37,6.21A31.28,31.28,0,0,1,89,223.53a2.19,2.19,0,0,0-.09,2.77c.85,1.13,1.78,2.78,1.42,4.32-.55,2.39-1.82,6-3.78,7.11a2.37,2.37,0,0,0-1.19,1.59,3.63,3.63,0,0,0,.86,3.05c1.45,1.72.69,4.83.37,5.89a2.56,2.56,0,0,1-.3.65l-3.45,5.65c-.9,1.49,0,5.07,0,5.07s.83,8.66-14.66,7.34c0,0-12.2-3.37-12.74-10.83a7.61,7.61,0,0,1,2-5.69,1.82,1.82,0,0,0,.41-1.95c-.77-2.09-1.33-5.77-.34-7.4a9.91,9.91,0,0,1,3.27-3.64,2,2,0,0,0,1-2.2c-.24-1.08-.54-2.55-.74-3.86a7.59,7.59,0,0,1,.68-4.43,16.41,16.41,0,0,1,3.21-4.75c1.67-1.41.71-3.84-.24-5.51a4,4,0,0,1-.44-3c.53-2.16,3-5.35,5.23-7.06a1.16,1.16,0,0,0,.53-1.42c-.79-1.6-.88-4.18-1.08-5.59a3.3,3.3,0,0,1,.06-1.33,9.23,9.23,0,0,1,3.29-5,7.1,7.1,0,0,0,2.44-3.52C75.74,186.59,78.18,181.18,83.05,180.91Z"/><path id="Turnip_Stem" data-name="Turnip Stem" class="cls-2" d="M80.91,199.39s1.24,45.92-17.25,77.23l-5.1-3.11S82.52,221.76,80.91,199.39Z"/></g><g id="Turnip_Green-2" data-name="Turnip Green"><path id="Turnip_Leaf-2" data-name="Turnip Leaf" class="cls-3" d="M29.5,181.64a2.93,2.93,0,0,1,1.89-.49c2.24.16,7.67,1.34,12.29,8.61a2.36,2.36,0,0,0,1.52,1.07,8.89,8.89,0,0,1,6,5.09,9.15,9.15,0,0,1,.75,7.16,1.71,1.71,0,0,0,.93,2.15c1.81.79,4.41,2.32,4.41,4.6a30.76,30.76,0,0,1-.48,5.07,2.2,2.2,0,0,0,1.36,2.42c1.31.51,3,1.44,3.47,2.94.77,2.32,1.55,6,.47,8a2.36,2.36,0,0,0-.19,2,3.7,3.7,0,0,0,2.32,2.16c2.14.71,3.11,3.76,3.39,4.84a2.82,2.82,0,0,1,.09.71v6.62c0,1.74,2.61,4.34,2.61,4.34s5.21,7-8.69,13.91c0,0-12.17,3.48-16.52-2.61a7.59,7.59,0,0,1-1.27-5.89,1.81,1.81,0,0,0-.67-1.87c-1.75-1.39-4.14-4.23-4.14-6.14a9.93,9.93,0,0,1,.88-4.81,2,2,0,0,0-.25-2.42c-.77-.8-1.79-1.9-2.65-2.92a7.47,7.47,0,0,1-1.72-4.13,16.23,16.23,0,0,1,.26-5.72c.69-2.08-1.4-3.65-3.08-4.58a4,4,0,0,1-1.92-2.31c-.68-2.12-.22-6.15.78-8.76a1.17,1.17,0,0,0-.29-1.49c-1.5-.95-2.93-3.1-3.84-4.2a3.33,3.33,0,0,1-.63-1.17,9.23,9.23,0,0,1,.2-6,7.11,7.11,0,0,0,.25-4.28C26.22,190.3,25.48,184.4,29.5,181.64Z"/><path id="Turnip_Stem-2" data-name="Turnip Stem" class="cls-2" d="M37.3,198.53s25,38.54,25.53,74.9h-6S50.34,216.78,37.3,198.53Z"/></g><path id="Turnip_Main" data-name="Turnip Main" class="cls-2" d="M61.2,273.72s32.2,1.57,36.13,33.82A33.3,33.3,0,0,1,97,317.65c-1.62,8.7-6.53,27-20.14,36C58.59,365.86,56,391.93,59.46,400.63S68.16,414.54,76,415.4c0,0-16.08,8.26-23-16.08A115.4,115.4,0,0,1,50.73,382c0-.32,0-.63,0-.95-.32-3.27-2.54-21.93-11.25-29.06-9.56-7.82-17.82-20.43-20-27.82A35.73,35.73,0,0,1,23,293.71C32.52,278.06,49,272,61.2,273.72Z"/></g><g id="Apple"><path id="Apple_Leaf" data-name="Apple Leaf" class="cls-3" d="M115,5.07a1.22,1.22,0,0,0-.72-1.44A54.55,54.55,0,0,0,85.64.69c-7.82,1.2-14.19,4.73-18.12,10.07-4.84,6.57-5.37,14.09-6.71,15.43-.67.68-4,2.69-5.37,4.7l1.34.67s4-4,6-4.69,17.38,2,31.55-2.69C105,20.68,113.19,12,115,5.07Z"/><path id="Apple_Stalk" data-name="Apple Stalk" class="cls-3" d="M44.53,17.28c1.65,1.64,6.8,7.12,7.48,12.47.08.61.25,1.81-.36,1.81H49.47c-.5,0-.92-1-1-1.49A15.68,15.68,0,0,0,46,24.18a18.86,18.86,0,0,0-5.54-4.43,1,1,0,0,1-.53-1c.05-1,.54-2.69,3.32-2.17A2.42,2.42,0,0,1,44.53,17.28Z"/><path id="Apple_Main" data-name="Apple Main" class="cls-2" d="M63.49,29.55c2-.67,49-4,45.65,46.31-2.79,41.8-28.44,53.65-47,55-3.79.29-6.71-.67-10.07-.67-2.09,0-4.16.24-6.26.17C30.22,129.94,14,132.62.4,80.56c0,0-6.71-47.65,34.9-51H38c2.68,0,3.37.67,4.7.67,2,0,13.42,1.34,16.78.67S62.07,30,63.49,29.55Z"/></g></g></g></svg>